<?xml version="1.0" encoding="UTF-8"?>
<!-- Created with Inkscape (http://www.inkscape.org/) -->
<svg width="45mm" height="15mm" version="1.1" viewBox="0 0 45 15" xmlns="http://www.w3.org/2000/svg">
 <g transform="translate(.16137 .017332)" stroke-width=".26458">
  <path d="m1.1319 12.988c-0.79617-0.87976-0.19504-2.2044 1.9785-4.3598 1.8625-1.847 1.8625-1.847 3.2465-0.46302 1.3477 1.3477 1.365 1.3839 0.65948 1.3839-0.59636 0-0.72446 0.11695-0.72446 0.66146 0 0.52917-0.13229 0.66146-0.66145 0.66146-0.52917 0-0.66146 0.13229-0.66146 0.66146 0 0.52917-0.13229 0.66146-0.66146 0.66146s-0.66146 0.13229-0.66146 0.66146c0 0.87846-1.7552 0.97031-2.5142 0.13157zm2.5065-2.5051c1.0799-1.0871 1.8773-2.0627 1.7721-2.168-0.19982-0.19982-3.4655 2.8757-3.9093 3.6816-0.51583 0.93679 0.22277 0.4137 2.1372-1.5136zm2.928-2.9082c-0.80709-0.71202-1.1395-2.0059-0.99335-3.0722 0.39616-2.9536 4.0757-4.1554 6.2045-2.0265 2.1289 2.1289 0.92709 5.8084-2.0265 6.2045-0.17694 3.7264-3.0387-4.9843-3.1847-1.1058zm3.9092-3.3872c0.1053-0.54678-0.6585-0.91522-1.0616-0.5121-0.40312 0.40312-0.0347 1.1669 0.5121 1.0616 0.25343-0.04881 0.50071-0.29609 0.54952-0.54952z"/>
  <g transform="translate(-1.634 -1.2078)" aria-label="AUTH">
   <path d="m22.042 12.71h2.1907s-0.54244-5.9427-2.7093-7.4612c-0.65292-0.45754-1.7386-0.45713-2.3918 0-2.1688 1.5178-2.7199 7.4612-2.7199 7.4612h2.1802l0.40216-1.2171h2.6458zm-0.92075-2.8046h-1.5981l0.79375-2.413z"/>
   <path d="m24.878 5.2487v4.3286c0 2.1272 1.3547 3.2067 3.1538 3.2067 1.7886 0 3.2702-1.0795 3.2702-3.2067v-4.3286h-2.0743v4.3286c0 0.77258-0.37042 1.2594-1.1536 1.2594s-1.1324-0.48683-1.1324-1.2594v-4.3286z"/>
   <path d="m32.033 5.2487v1.651h1.9685v5.8102h2.0743v-5.8102h1.9897v-1.651z"/>
   <path d="m43.441 5.2487c-0.66104 0.66104 0 2.8046 0 2.8046h-2.5294s0.66104-2.1435 0-2.8046c-0.48892-0.48892-2.0743 0-2.0743 0v7.4612s1.5854 0.48892 2.0743 0c0.70595-0.70595 0-2.9951 0-2.9951h2.5294s-0.70595 2.2891 0 2.9951c0.48892 0.48892 2.0743 0 2.0743 0v-7.4612s-1.5854-0.48892-2.0743 0z"/>
  </g>
 </g>
</svg>
